<?xml version="1.0" ?><!DOCTYPE svg  PUBLIC '-//W3C//DTD SVG 1.1//EN'  'http://www.w3.org/Graphics/SVG/1.1/DTD/svg11.dtd'><svg height="2048px" style="shape-rendering:geometricPrecision; text-rendering:geometricPrecision; image-rendering:optimizeQuality; fill-rule:evenodd; clip-rule:evenodd" viewBox="0 0 2048 2048" width="2048px" xml:space="preserve" xmlns="http://www.w3.org/2000/svg" xmlns:xlink="http://www.w3.org/1999/xlink"><defs><style type="text/css">
   <![CDATA[
    .fil1 {fill:none}
    .fil2 {fill:#9E9E9E}
    .fil0 {fill:#333333;fill-rule:nonzero}
   ]]>
  </style></defs><g id="Layer_x0020_1"><g id="_510556440"><path class="fil0" d="M1478.52 1415.11c-7.213,5.07402 -8.94804,15.0366 -3.87402,22.2496 5.07402,7.213 15.0366,8.94804 22.2496,3.87402 27.9355,-19.7398 88.6831,-37.05 144.333,-42.4748 44.1414,-4.30276 83.6363,-1.55551 96.7135,13.1669 11.9693,19.05 5.61851,54.9496 -8.3067,92.8453 -21.2374,57.7926 -59.5571,117.366 -80.8808,135.398 -6.73111,5.6941 -7.56969,15.7689 -1.87559,22.5 5.6941,6.73111 15.7689,7.56969 22.5,1.87559 24.3803,-20.6173 67.2934,-86.2831 90.2564,-148.773 16.9866,-46.2284 23.4343,-92.0327 5.27717,-120.934 -0.464174,-0.84567 -1.01102,-1.66299 -1.64291,-2.4378l-0.0401575 0.0318898c-20.1697,-24.6792 -70.7209,-30.7146 -125.001,-25.4232 -60.5469,5.90315 -127.714,25.4929 -159.709,48.1016z" id="_510557400"/><path class="fil1" d="M1624.43 1496.49c-19.4681,15.0071 -40.5567,28.7032 -61.6465,40.8248 -157.825,94.8556 -362.172,144.486 -539.674,144.486 -285.683,0 -541.236,-105.356 -735.113,-281.594" id="_510557544"/><path class="fil0" d="M1634.18 1509.11c6.97205,-5.38465 8.25946,-15.4028 2.87481,-22.3748 -5.38465,-6.97205 -15.4028,-8.25946 -22.3748,-2.87481 -8.98229,6.92363 -18.4595,13.6453 -28.2248,20.1118 -10.7043,7.0878 -21.2941,13.5969 -31.6087,19.526l7.93701 13.8118 -7.97363 -13.8721c-0.451181,0.259843 -0.885827,0.538583 -1.30158,0.833859 -75.3036,45.0957 -161.473,79.7835 -250.249,103.55 -93.8316,25.1197 -190.464,37.9737 -280.151,37.9737 -138.349,0 -269.488,-25.0453 -389.735,-71.106 -124.546,-47.7095 -237.456,-117.969 -334.628,-206.3 -6.52323,-5.93623 -16.6264,-5.46142 -22.5626,1.06181 -5.93623,6.52323 -5.46142,16.6264 1.06181,22.5626 100.121,91.0123 216.448,163.401 344.755,212.55 123.842,47.4378 258.813,73.2319 401.109,73.2319 92.3068,0 191.784,-13.2354 288.399,-39.1004 91.4115,-24.4725 180.363,-60.3237 258.37,-107.045 0.296457,-0.146457 0.589371,-0.302362 0.878741,-0.468898l-0.0236221 -0.0425197 0.237402 -0.141732 -0.00826772 -0.0153543c11.4047,-6.56103 22.5414,-13.3831 33.117,-20.3858 10.1858,-6.74528 20.2772,-13.9158 30.1004,-21.4866z" id="_510557496"/><path class="fil0" d="M1101.87 1056.2c-11.3209,22.3949 -26.4792,40.8803 -43.9807,55.141 -18.7784,15.2988 -40.2213,25.7481 -62.5146,30.9685l-3.62481 0.438189c-1.41496,0 -3.90237,0.467717 -6.64725,0.982678 -5.25119,0.986221 -11.1165,2.08819 -17.4213,2.08819 -37.6311,0 -67.8745,-14.5843 -88.9879,-39.939 -20.961,-25.1705 -32.3422,-60.6686 -32.3422,-102.549 0,-52.4115 15.8835,-91.3241 41.7709,-120.183 25.5614,-28.4965 60.4772,-46.5296 99.1902,-57.7607l0.812599 -0.250394c20.3551,-4.75748 42.1571,-7.94056 64.6099,-9.92127 22.3051,-1.96654 45.313,-2.76969 68.2193,-2.76969l16.0004 0 0 16.0004 0 36.3213c0,22.7351 -0.0496063,9.163 -0.0330709,14.4945 0.194882,64.7871 0.350788,117.37 -35.0516,176.939zm-64.1044 30.3921c14.3244,-11.6717 26.7343,-26.8866 35.9788,-45.3839l0.562205 -1.06299c31.0666,-52.1079 30.9189,-100.83 30.7394,-160.884 -0.0472441,-14.8547 -0.0921261,-1.56969 -0.0921261,-14.4945l0 -20.1815c-16.7114,0.296457 -33.3189,1.08071 -49.4693,2.50512 -21.1488,1.86614 -41.4626,4.81181 -60.1099,9.17009l-0.00236221 -0.011811c-33.0969,9.70749 -62.5725,24.8162 -83.5005,48.1489 -20.7732,23.1591 -33.5197,55.1008 -33.5197,98.9328 0,34.4079 8.74135,62.8406 24.8421,82.1753 14.9658,17.9728 36.8622,28.3122 64.4871,28.3122 3.76181,0 7.86969,-0.772442 11.5465,-1.46221 3.70866,-0.69567 7.13268,-1.33937 10.4398,-1.54252 17.1461,-4.25906 33.6189,-12.4252 48.0981,-24.2209z" id="_510557328"/><path class="fil0" d="M1122.21 705.87l-15.1878 1.17756c-35.4225,2.74016 -74.993,5.80276 -113.446,10.9016l-0.0625985 0c-34.0051,4.40906 -68.0776,9.57875 -100.693,16.9914 -31.8957,7.24725 -62.3351,16.6854 -89.7981,29.7555l-0.875198 0.37441c-54.5965,22.1752 -99.9001,57.1737 -130.832,104.156 -29.0055,44.0575 -45.5776,98.9906 -45.5776,164.172 0,80.7166 24.4595,141.993 64.7481,183.741 43.8059,45.3922 106.849,68.2205 177.853,68.2205 23.6988,0 44.7851,-1.37599 64.1032,-3.84567 19.2047,-2.45433 37.3252,-6.0815 55.0075,-10.5744 26.8299,-8.50867 51.5918,-20.5902 76.389,-37.5945 25.3949,-17.4177 50.9197,-40.0453 78.7619,-69.2953l13.1669 -13.8343 11.2701 15.4595c8.24528,11.3114 13.0736,18.2362 17.5654,24.6815 20.0941,28.8307 34.3229,49.2461 76.8048,85.219 4.80355,1.66417 9.41694,2.4378 13.65,2.12362 3.82323,-0.284646 7.41497,-1.54843 10.5992,-3.97914l0.00944883 0.0129921c18.5126,-15.4122 44.817,-37.7681 70.7788,-60.1725 23.2725,-20.0835 45.5055,-39.5457 60.5682,-53.1839l0.625985 -0.562205c3.06024,-2.48032 4.42796,-5.30552 4.62402,-8.18741 0.324803,-4.75748 -1.68543,-10.3748 -4.83071,-15.8504 -3.07796,-3.92717 -4.32048,-5.49804 -5.59016,-7.10552 -32.687,-41.3433 -63.2008,-79.9383 -63.2008,-161.434l0 -271.097c0,-1.15748 0.102756,-15.8339 0.20315,-30.2717 0.690945,-99.052 1.31811,-189.535 -70.0016,-256.205l-0.00354331 0.00354331c-29.9138,-27.3107 -67.7245,-46.9654 -107.658,-60.2871 -47.9835,-16.0075 -99.032,-22.8473 -143.33,-22.8473l-36.0957 0 0 -0.00944883c-81.3875,4.84134 -165.091,26.2264 -229.377,74.6505 -52.0063,39.1725 -91.5119,96.3898 -106.904,177.412l-0.187795 0.812599 -0.090945 0.373229 0.0448819 0.0106299c-1.30866,5.50276 -0.340158,8.85473 1.51654,10.8496 2.60079,2.79449 6.84095,4.4752 10.4398,5.39292l164.278 20.8925c3.5126,-1.01575 6.28583,-2.88425 8.42481,-5.25355 3.5374,-3.92008 5.69174,-9.34607 6.77008,-14.9457l0.125197 -0.499607c7.99489,-35.0244 25.8166,-61.8638 49.5319,-81.176 26.0929,-21.2492 59.1508,-33.124 93.8658,-36.5764l1.5626 -0.125197 12.0272 0c20.9729,0 42.9366,4.62284 62.6138,13.8189 18.3957,8.59725 34.8107,21.2599 46.6465,37.9796l0.37441 0.438189c24.2587,36.9803 24.0012,82.4587 23.7662,123.982 -0.00826772,1.68662 0.0188977,-4.53898 0.0188977,11.5311l-0.0625985 0.125197 -0.242126 23.8429 -0.15 14.6681 -14.5382 1.14449zm-17.5618 -30.6981l0.523229 -0.0401575 0.0921261 -9.04253 -0.0614174 0c0,-8.4319 0.0555119,-2.15788 0.106299,-11.6563 0.207874,-36.8811 0.437008,-77.276 -18.6402,-106.357l0.0413386 -0.0271654c-8.41182,-11.6799 -20.3138,-20.7059 -33.8126,-27.0142 -15.2268,-7.11615 -32.4662,-10.6937 -49.1138,-10.6937l-11.674 0c-28.3075,3.00827 -54.9485,12.5835 -75.6579,29.4496 -18.287,14.8925 -32.087,35.6882 -38.4142,62.9256l0.00826772 0.0011811c-2.0811,10.8118 -6.61772,21.7028 -14.3953,30.3213 -6.98504,7.73741 -16.3595,13.5165 -28.5945,15.7299l-4.81181 0.125197 -168.161 -21.3862 -1.7504 -0.312992 -0.48189 -0.116929 -0.0625985 0c-8.30316,-2.06339 -18.6933,-6.40867 -26.4047,-14.6976 -8.50985,-9.14764 -13.5272,-22.0595 -9.26694,-39.9733l0.0531496 -0.0531496c17.1071,-89.6079 61.0654,-153.073 118.96,-196.681 70.1528,-52.8426 160.46,-76.0123 247.752,-81.0792l0.875198 -0.0625985 36.0957 0c47.1851,0 101.793,7.363 153.455,24.5977 43.8839,14.641 85.6453,36.4299 119.034,66.913l0.124016 0.125197c81.6745,76.2213 80.9977,173.418 80.256,279.826 -0.0377953,5.53937 -0.0779528,11.0138 -0.0779528,30.1465l0 271.097c0,70.6016 27.1335,104.921 56.1993,141.684 2.9067,3.67796 5.87363,7.43032 6.50906,8.24292l1.18819 1.6878c6.35788,10.7303 10.4209,22.8827 9.60001,34.9016 -0.774804,11.3705 -5.61496,22.0618 -16.3217,30.7654 -16.141,14.6008 -38.1544,33.8859 -60.4973,53.1674 -25.3559,21.8811 -52.1138,44.5996 -71.7886,60.9721l-0.499607 0.437008c-8.41064,6.42166 -17.7508,9.74528 -27.6,10.4799 -9.79489,0.728741 -19.9536,-1.19764 -30.039,-5.2193l-4.37481 -2.62441c-47.7012,-40.0902 -62.9623,-61.9878 -84.6638,-93.1241 -2.00788,-2.88071 -4.06654,-5.83347 -6.09686,-8.73544 -24.3366,24.3721 -47.3327,44.015 -70.4186,59.8477 -27.6874,18.9874 -55.4162,32.4544 -85.5745,41.9386l-0.812599 0.249213c-18.3721,4.67244 -37.7315,8.51339 -59.0103,11.2323 -21.2055,2.71181 -43.6642,4.22126 -68.1024,4.22126 -79.5426,0 -150.706,-26.1343 -200.854,-78.0969 -45.8894,-47.55 -73.7481,-116.291 -73.7481,-205.865 0,-71.589 18.5268,-132.417 50.954,-181.671 34.5591,-52.4918 84.6804,-91.4623 144.819,-116.019 29.5016,-14.0114 62.1378,-24.1276 96.3119,-31.8922 33.5221,-7.6193 68.602,-12.9413 103.631,-17.4839l-0.0011811 -0.00826772c40.5319,-5.37402 79.93,-8.42481 115.197,-11.152z" id="_510557520"/></g><path class="fil2" d="M1278.84 409.662l0 0zm-287.087 -83.1402l0 0zm-95.4284 188.519c26.0929,-21.2492 59.1508,-33.124 93.8658,-36.5764l1.5626 -0.125197 12.0272 0c20.9729,0 42.9366,4.62284 62.6138,13.8189 18.3957,8.59725 34.8107,21.2599 46.6465,37.9796l0.37441 0.438189c24.2587,36.9803 24.0012,82.4587 23.7662,123.982 -0.00826772,1.68662 0.0188977,-4.53898 0.0188977,11.5311l-0.0625985 0.125197 -0.242126 23.8429 -0.15 14.6681 -14.5382 1.14449 -15.1878 1.17756c-35.4225,2.74016 -74.993,5.80276 -113.446,10.9016l-0.0625985 0c-34.0051,4.40906 -68.0776,9.57875 -100.693,16.9914 -31.8957,7.24725 -62.3351,16.6854 -89.7981,29.7555l-0.875198 0.37441c-54.5965,22.1752 -99.9001,57.1737 -130.832,104.156 -29.0055,44.0575 -45.5776,98.9906 -45.5776,164.172 0,80.7166 24.4595,141.993 64.7481,183.741 43.8059,45.3922 106.849,68.2205 177.853,68.2205 23.6988,0 44.7851,-1.37599 64.1032,-3.84567 19.2047,-2.45433 37.3252,-6.0815 55.0075,-10.5744 26.8299,-8.50867 51.5918,-20.5902 76.389,-37.5945 25.3949,-17.4177 50.9197,-40.0453 78.7619,-69.2953l13.1669 -13.8343 11.2701 15.4595c8.24528,11.3114 13.0736,18.2362 17.5654,24.6815 20.0941,28.8307 34.3229,49.2461 76.8048,85.219 4.80355,1.66417 9.41694,2.4378 13.65,2.12362 3.82323,-0.284646 7.41497,-1.54843 10.5992,-3.97914l0.00944883 0.0129921c18.5126,-15.4122 44.817,-37.7681 70.7788,-60.1725 23.2725,-20.0835 45.5055,-39.5457 60.5682,-53.1839l0.625985 -0.562205c3.06024,-2.48032 4.42796,-5.30552 4.62402,-8.18741 0.324803,-4.75748 -1.68543,-10.3748 -4.83071,-15.8504l-5.59016 -7.10552c-32.687,-41.3433 -63.2008,-79.9383 -63.2008,-161.434l0 -271.097 0.20315 -30.2717c0.690945,-99.052 1.31811,-189.535 -70.0052,-256.201 -29.9138,-27.3107 -67.7245,-46.9654 -107.658,-60.2871 -47.9835,-16.0075 -99.032,-22.8473 -143.33,-22.8473l-36.0957 -0.00944883c-81.3875,4.84134 -165.091,26.2264 -229.377,74.6505 -52.0063,39.1725 -91.5119,96.3898 -106.904,177.412l-0.187795 0.812599 -0.090945 0.373229 0.0448819 0.0106299c-1.30866,5.50276 -0.340158,8.85473 1.51654,10.8496 2.60079,2.79449 6.84095,4.4752 10.4398,5.39292l164.278 20.8925c3.5126,-1.01575 6.28583,-2.88425 8.42481,-5.25355 3.5374,-3.92008 5.69174,-9.34607 6.77008,-14.9457l0.125197 -0.499607c7.99489,-35.0244 25.8166,-61.8638 49.5319,-81.176zm91.8036 310.096c20.3551,-4.75748 42.1571,-7.94056 64.6099,-9.92127 22.3051,-1.96654 45.313,-2.76969 68.2193,-2.76969l16.0004 0 0 16.0004 0 36.3213c0,22.7351 -0.0496063,9.163 -0.0330709,14.4945 0.194882,64.7871 0.350788,117.37 -35.0516,176.939 -11.3209,22.3949 -26.4792,40.8803 -43.9807,55.141 -18.7784,15.2988 -40.2213,25.7481 -62.5146,30.9685l-3.62481 0.438189c-1.41496,0 -3.90237,0.467717 -6.64725,0.982678 -5.25119,0.986221 -11.1165,2.08819 -17.4213,2.08819 -37.6311,0 -67.8745,-14.5843 -88.9879,-39.939 -20.961,-25.1705 -32.3422,-60.6686 -32.3422,-102.549 0,-52.4115 15.8835,-91.3241 41.7709,-120.183 25.5614,-28.4965 60.4772,-46.5296 99.1902,-57.7607l0.812599 -0.250394z"/></g><rect class="fil1" height="2048" width="2048"/></svg>